<?xml version="1.0" encoding="UTF-8"?>
<!DOCTYPE svg PUBLIC "-//W3C//DTD SVG 1.1//EN" "http://www.w3.org/Graphics/SVG/1.1/DTD/svg11.dtd">
<!-- Creator: CorelDRAW -->
<svg xmlns="http://www.w3.org/2000/svg" xml:space="preserve" width="437.375mm" height="91.343mm" version="1.1" style="shape-rendering:geometricPrecision; text-rendering:geometricPrecision; image-rendering:optimizeQuality; fill-rule:evenodd; clip-rule:evenodd"
viewBox="0 0 56241.07 11745.59"
 xmlns:xlink="http://www.w3.org/1999/xlink"
 xmlns:xodm="http://www.corel.com/coreldraw/odm/2003">
 <defs>
  <style type="text/css">
   <![CDATA[
    .str0 {stroke:#2B2A29;stroke-width:90.73;stroke-miterlimit:22.9256}
    .str1 {stroke:#2B2A29;stroke-width:90.73;stroke-miterlimit:22.9256}
    .fil0 {fill:#408080;fill-rule:nonzero}
   ]]>
  </style>
 </defs>
 <g id="Layer_x0020_1">
  <metadata id="CorelCorpID_0Corel-Layer"/>
  <g id="opinodromo.svg">
   <path class="fil0 str0" d="M2136.67 5887.21c-590.14,0 -1086.35,-206.63 -1488.64,-621.45 -402.3,-414.81 -602.67,-945.47 -602.67,-1590.37 0,-599.53 158.1,-1188.1 472.74,-1767.27 314.63,-577.62 767.01,-1045.65 1357.15,-1404.11 504.04,-305.24 1003.37,-458.65 1498.02,-458.65 583.88,0 1078.52,206.63 1483.94,621.44 405.42,414.81 607.36,937.64 607.36,1566.91 0,493.08 -103.31,975.21 -311.5,1447.94 -208.18,472.74 -472.74,865.64 -793.63,1180.27 -320.89,313.07 -676.22,561.97 -1065.99,748.23 -389.78,184.72 -774.84,277.08 -1156.79,277.08zm198.8 -939.21c320.89,0 659.01,-114.28 1012.77,-342.82 353.77,-226.98 633.96,-541.61 840.59,-940.77 205.06,-399.15 308.38,-799.89 308.38,-1200.61 0,-438.29 -128.36,-793.63 -385.08,-1067.56 -256.71,-273.94 -568.22,-411.69 -937.64,-411.69 -311.5,0 -643.35,111.14 -994,333.42 -350.63,222.28 -633.96,532.21 -846.84,929.82 -214.45,397.59 -320.9,799.88 -320.9,1206.87 0,447.69 128.36,807.71 385.08,1081.65 256.71,273.93 568.22,411.69 937.64,411.69zm4879.17 -1108.26l-205.07 967.37 1144.28 0c194.09,0 328.72,28.19 403.86,84.53 73.57,56.36 111.14,151.84 111.14,286.47 0,134.61 -92.36,281.75 -277.07,444.55 -97.06,82.96 -242.62,123.66 -436.74,123.66l-2236.87 0c-250.45,0 -413.24,-28.19 -488.38,-84.53 -73.58,-56.36 -111.14,-151.84 -111.14,-286.47 0,-134.61 90.78,-281.75 272.36,-439.85 100.18,-86.1 275.5,-128.37 525.96,-128.37l151.84 0 777.97 -3672.29 -350.63 0c-250.46,0 -413.26,-29.73 -486.82,-87.66 -73.57,-57.92 -111.14,-153.41 -111.14,-288.02 0,-134.62 90.8,-281.76 272.37,-442.98 100.17,-86.09 275.5,-129.93 525.95,-129.93l2286.96 4.69c590.13,0 1039.39,134.62 1350.89,403.86 311.5,267.68 466.47,610.48 466.47,1026.86 0,314.63 -87.65,624.58 -261.41,929.82 -128.36,228.54 -283.32,417.95 -463.34,563.52 -334.98,266.11 -651.18,453.94 -948.59,561.95 -298.98,108.01 -638.66,162.8 -1022.18,162.8l-890.66 0zm198.78 -939.21l870.33 0c300.55,0 596.4,-67.32 887.55,-201.93 217.58,-103.32 383.51,-237.94 499.34,-402.3 114.28,-164.36 172.19,-325.58 172.19,-485.25 0,-184.7 -81.4,-344.38 -242.63,-477.42 -161.22,-133.06 -402.29,-198.81 -724.76,-198.81l-1087.9 0 -374.13 1765.72zm7468.25 -1775.1l-779.54 3681.67 1144.26 0c195.66,0 328.72,28.19 403.86,84.53 73.57,56.36 111.14,151.84 111.14,286.47 0,134.61 -92.35,281.75 -277.06,444.55 -97.06,82.96 -242.63,123.66 -436.74,123.66l-3035.2 0c-194.1,0 -328.72,-28.19 -403.86,-84.53 -73.58,-56.36 -111.14,-151.84 -111.14,-286.47 0,-134.61 90.78,-280.19 272.36,-438.28 100.18,-86.1 247.33,-129.94 441.43,-129.94l950.16 0 777.97 -3672.29 -1148.96 0c-194.1,0 -328.72,-29.73 -402.29,-87.66 -73.58,-57.92 -111.14,-153.41 -111.14,-288.02 0,-134.62 90.78,-281.76 272.36,-442.98 100.18,-86.09 247.33,-129.93 441.43,-129.93l3036.77 0c194.1,0 327.15,28.17 402.29,84.53 73.58,56.35 111.14,151.82 111.14,286.46 0,134.62 -92.35,281.76 -277.07,444.55 -97.05,82.96 -242.62,123.66 -436.72,123.66l-945.47 0zm3813.17 835.88l-602.67 2845.79 536.92 0c194.1,0 328.72,28.19 403.86,84.53 73.58,56.36 111.14,151.84 111.14,286.47 0,134.61 -92.35,281.75 -277.06,444.55 -97.06,82.96 -242.63,123.66 -436.74,123.66l-1476.11 0c-195.67,0 -328.72,-28.19 -403.87,-84.53 -73.57,-56.36 -111.14,-151.84 -111.14,-286.47 0,-134.61 70.45,-262.96 211.32,-385.07 140.88,-122.09 306.81,-183.15 500.91,-183.15l777.97 -3672.29 -347.51 0c-194.09,0 -328.71,-29.73 -402.29,-87.66 -73.58,-57.92 -111.14,-153.41 -111.14,-288.02 0,-134.62 90.78,-281.76 272.36,-442.98 100.2,-86.09 247.33,-129.93 441.44,-129.93l1291.41 0 1598.2 3770.91 599.53 -2822.32 -552.57 0c-194.1,0 -328.72,-29.73 -402.3,-87.66 -73.55,-57.92 -111.14,-153.41 -111.14,-288.02 0,-134.62 90.8,-281.76 272.39,-442.98 100.17,-86.09 247.31,-129.93 441.42,-129.93l1494.9 0c194.1,0 328.72,28.17 403.86,84.53 73.58,56.35 111.15,151.82 111.15,286.46 0,134.62 -70.44,262.97 -211.33,385.07 -140.87,122.09 -308.37,183.15 -504.03,183.15l-979.9 4620.89 -934.51 0 -1604.48 -3785.01zm10076.1 2845.79l777.97 -3672.29c-388.21,0 -618.3,-29.73 -691.88,-87.66 -73.58,-57.92 -111.14,-153.41 -111.14,-288.02 0,-134.62 90.8,-281.76 272.36,-442.98 100.2,-86.09 275.51,-129.93 525.96,-129.93l2097.55 4.69c732.59,0 1297.67,253.59 1695.26,760.75 264.56,336.55 396.05,773.29 396.05,1310.19 0,178.45 -23.49,372.54 -68.88,582.31l-97.06 449.25c-87.65,397.61 -230.11,751.36 -430.46,1059.74 -200.37,308.38 -435.17,560.39 -705.97,756.06 -269.24,195.67 -511.86,339.68 -727.88,430.47 -327.15,137.74 -732.58,206.63 -1217.84,206.63l-1909.71 0c-250.45,0 -413.26,-28.19 -488.39,-84.53 -73.57,-56.36 -111.14,-151.84 -111.14,-286.47 0,-134.61 70.44,-262.96 211.32,-385.07 140.88,-122.09 334.98,-183.15 583.88,-183.15zm940.77 0l1000.25 0c389.78,0 707.53,-65.73 956.42,-198.78 247.33,-133.06 453.95,-308.38 616.75,-524.41 164.36,-217.57 281.76,-488.38 352.2,-815.54l92.35 -444.55c29.74,-142.44 45.39,-272.36 45.39,-388.19 0,-406.99 -111.14,-724.76 -334.97,-954.87 -223.85,-230.11 -541.61,-345.94 -953.3,-345.94l-997.12 0 -777.97 3672.29zm5752.62 -1183.39l-250.45 1183.39 541.61 0c195.66,0 328.71,28.19 403.86,84.53 73.57,56.36 111.14,151.84 111.14,286.47 0,134.61 -92.36,281.75 -278.64,444.55 -95.49,82.96 -241.06,123.66 -435.17,123.66l-1635.78 0c-252.02,0 -413.26,-28.19 -488.39,-84.53 -73.57,-56.36 -111.14,-151.84 -111.14,-286.47 0,-134.61 90.8,-281.75 272.37,-439.85 100.18,-86.1 275.5,-128.37 525.95,-128.37l153.41 0 777.98 -3672.29 -352.2 0c-250.46,0 -413.26,-29.73 -486.83,-87.66 -73.57,-57.92 -111.14,-153.41 -111.14,-288.02 0,-134.62 90.8,-281.76 272.37,-442.98 100.18,-86.09 275.5,-129.93 525.95,-129.93l2243.14 0c616.75,0 1080.09,129.93 1388.47,388.21 308.37,258.28 463.34,588.57 463.34,989.29 0,363.16 -118.97,691.88 -358.46,984.61 -237.94,291.15 -597.97,549.43 -1078.52,773.28 170.62,167.49 345.94,386.64 522.83,655.87 112.69,170.62 256.7,447.69 435.15,829.62 244.2,0 403.86,31.32 479,92.36 75.13,61.04 112.69,153.41 112.69,278.64 0,189.4 -89.21,345.94 -267.67,471.16 -92.35,64.18 -247.33,97.06 -460.2,97.06l-530.66 0c-280.21,-602.67 -549.44,-1078.53 -807.71,-1427.61 -258.29,-349.06 -496.22,-580.74 -713.8,-695l-862.5 0zm195.67 -939.21l731.01 0c237.94,0 447.69,-28.17 630.84,-82.96 247.33,-75.13 450.82,-162.79 612.04,-259.85 118.97,-73.57 216.03,-162.79 289.59,-267.67 75.13,-104.88 112.71,-212.88 112.71,-322.46 0,-161.24 -79.83,-303.67 -237.93,-428.9 -158.11,-125.22 -402.3,-187.84 -731.02,-187.84l-1075.39 0 -331.85 1549.69zm5934.2 3202.7c-590.13,0 -1086.34,-206.63 -1488.64,-621.45 -402.3,-414.81 -602.65,-945.47 -602.65,-1590.37 0,-599.53 158.1,-1188.1 472.73,-1767.27 314.63,-577.62 767.03,-1045.65 1357.15,-1404.11 504.04,-305.24 1003.38,-458.65 1498.03,-458.65 583.87,0 1078.52,206.63 1483.94,621.44 405.41,414.81 607.35,937.64 607.35,1566.91 0,493.08 -103.31,975.21 -311.5,1447.94 -208.18,472.74 -472.73,865.64 -793.62,1180.27 -320.9,313.07 -676.23,561.97 -1066.01,748.23 -389.76,184.72 -774.83,277.08 -1156.79,277.08zm198.81 -939.21c320.89,0 659,-114.28 1012.77,-342.82 353.76,-226.98 633.96,-541.61 840.59,-940.77 205.05,-399.15 308.37,-799.89 308.37,-1200.61 0,-438.29 -128.36,-793.63 -385.07,-1067.56 -256.71,-273.94 -568.22,-411.69 -937.65,-411.69 -311.49,0 -643.35,111.14 -993.98,333.42 -350.65,222.28 -633.96,532.21 -846.85,929.82 -214.45,397.59 -320.89,799.88 -320.89,1206.87 0,447.69 128.36,807.71 385.07,1081.65 256.71,273.93 568.22,411.69 937.65,411.69zm4685.06 -2498.28l-500.9 2357.39 535.34 0c131.49,0 234.8,28.19 309.94,84.53 73.58,56.36 111.14,151.84 111.14,286.47 0,134.61 -92.35,281.75 -277.06,444.55 -97.06,82.96 -211.32,123.66 -342.82,123.66l-1476.12 0c-194.1,0 -328.71,-28.19 -403.86,-84.53 -73.57,-56.36 -111.14,-151.84 -111.14,-286.47 0,-134.61 70.44,-262.96 211.32,-385.07 140.88,-122.09 308.38,-183.15 502.48,-183.15l777.97 -3672.29c-327.15,0 -527.52,-29.73 -601.08,-87.66 -73.58,-57.92 -111.14,-153.41 -111.14,-288.02 0,-134.62 90.78,-281.76 272.36,-442.98 100.18,-86.09 247.33,-129.93 441.43,-129.93l1228.78 0 615.19 2828.57 1864.32 -2828.57 1355.59 0c195.67,0 328.72,28.17 403.86,84.53 73.57,56.35 111.14,151.82 111.14,286.46 0,134.62 -70.44,262.97 -211.32,385.07 -140.88,122.09 -306.8,183.15 -499.34,183.15l-779.54 3681.67c325.6,0 524.39,28.19 599.53,84.53 73.58,56.36 111.14,151.84 111.14,286.47 0,134.61 -92.35,281.75 -277.07,444.55 -97.06,82.96 -242.62,123.66 -436.74,123.66l-1476.11 0c-131.48,0 -234.8,-28.19 -309.94,-84.53 -73.58,-56.36 -111.14,-151.84 -111.14,-286.47 0,-134.61 92.35,-281.75 275.5,-439.85 97.05,-86.1 212.88,-128.37 344.37,-128.37l339.68 0 688.75 -3252.77 -1890.93 2867.7 -854.67 0 -428.9 -1972.32zm6389.72 3437.49c-590.14,0 -1086.35,-206.63 -1488.64,-621.45 -402.3,-414.81 -602.67,-945.47 -602.67,-1590.37 0,-599.53 158.1,-1188.1 472.74,-1767.27 314.63,-577.62 767.01,-1045.65 1357.15,-1404.11 504.04,-305.24 1003.37,-458.65 1498.02,-458.65 583.88,0 1078.52,206.63 1483.94,621.44 405.42,414.81 607.36,937.64 607.36,1566.91 0,493.08 -103.31,975.21 -311.5,1447.94 -208.18,472.74 -472.74,865.64 -793.63,1180.27 -320.89,313.07 -676.22,561.97 -1065.99,748.23 -389.78,184.72 -774.84,277.08 -1156.79,277.08zm198.8 -939.21c320.89,0 659.01,-114.28 1012.77,-342.82 353.77,-226.98 633.96,-541.61 840.59,-940.77 205.06,-399.15 308.38,-799.89 308.38,-1200.61 0,-438.29 -128.36,-793.63 -385.08,-1067.56 -256.71,-273.94 -568.22,-411.69 -937.64,-411.69 -311.49,0 -643.35,111.14 -994,333.42 -350.63,222.28 -633.96,532.21 -846.84,929.82 -214.45,397.59 -320.9,799.88 -320.9,1206.87 0,447.69 128.37,807.71 385.08,1081.65 256.71,273.93 568.22,411.69 937.64,411.69z"/>
   <g id="SVGRepo_tracerCarrier">
   </g>
   <g id="SVGRepo_iconCarrier">
    <g>
     <g>
      <path class="fil0 str1" d="M13786.77 11621.03l2363.87 0c325.11,30.37 872.03,72.91 1418.93,60.76 343.34,27.35 710.99,30.39 1002.68,-33.42 987.48,-209.65 741.37,-899.37 741.37,-899.37 534.76,-401.07 230.92,-902.4 230.92,-902.4 473.99,-495.26 9.12,-908.47 9.12,-908.47 0,0 255.22,-398.04 -72.92,-701.87 -279.54,-255.22 -878.1,-221.8 -1239.68,-176.23l-258.26 -1020.9 701.87 0 0 -282.57c826.45,133.69 2193.72,486.15 3147.78,1388.54 9.12,167.11 158,300.81 334.23,279.54 151.91,-18.23 264.34,-158 264.34,-312.96l0 -1750.12c382.83,-142.8 656.29,-510.44 656.29,-944.94 0,-434.49 -273.45,-802.13 -656.29,-944.94l0 -1734.92c0,-154.96 -109.39,-294.74 -264.34,-312.96 -176.23,-21.27 -325.11,109.38 -334.23,279.52 -954.06,905.45 -2318.3,1254.86 -3147.78,1388.56l0 -282.57 -1889.88 0c-376.76,0 -680.6,303.84 -680.6,680.6l0 303.84 -206.61 0c-124.58,0 -227.88,103.31 -227.88,227.87l0 853.8c0,124.58 103.31,227.88 227.88,227.88l206.61 -0.01 0 261.3c0,376.76 303.84,680.6 680.6,680.6l173.18 0 200.53 829.48c-638.07,-88.11 -1321.7,549.96 -1321.7,549.96 -118.49,124.56 -194.45,264.34 -240.02,376.75l0 0c-12.15,27.35 -21.27,54.7 -30.39,79 -15.2,33.42 -54.69,82.04 -106.34,133.69 -121.54,124.56 -291.69,194.45 -464.87,194.45l-1218.41 0.01c-118.51,0 -215.73,97.23 -215.73,215.72l0 1984.07c0,115.46 97.24,212.7 215.73,212.7zm3047.5 -5298.97l0 -1795.7 1130.29 0.01 0 1795.69 -1130.29 0z"/>
      <path class="fil0 str1" d="M24135.55 1168.94c-951.02,951.02 -984.44,2467.18 -106.34,3457.7l24.3 21.27c-94.19,206.6 -258.27,458.8 -519.56,589.43 -85.07,42.55 -66.85,170.15 27.35,185.35 285.61,45.57 692.74,-6.08 1072.55,-294.72l6.08 3.03c969.24,568.18 2233.22,437.53 3065.74,-391.96 987.48,-987.48 987.48,-2585.67 0,-3573.15 -984.44,-984.43 -2582.65,-984.43 -3570.12,3.05zm923.67 2044.84c-142.8,0 -261.3,-115.46 -261.3,-261.3 0,-142.81 115.46,-261.3 261.3,-261.3 142.81,0 261.3,115.46 261.3,261.3 -3.05,145.83 -118.49,261.3 -261.3,261.3zm862.9 0c-142.8,0 -261.3,-115.46 -261.3,-261.3 0,-142.81 115.46,-261.3 261.3,-261.3 142.8,0 261.3,115.46 261.3,261.3 0,145.83 -118.49,261.3 -261.3,261.3zm862.9 0c-142.8,0 -261.3,-115.46 -261.3,-261.3 0,-142.81 115.46,-261.3 261.3,-261.3 145.86,0 261.3,115.46 261.3,261.3 0,145.84 -118.49,261.3 -261.3,261.3z"/>
     </g>
    </g>
   </g>
  </g>
 </g>
</svg>
