<?xml version="1.0" encoding="UTF-8"?>
<!DOCTYPE svg PUBLIC "-//W3C//DTD SVG 1.1//EN" "http://www.w3.org/Graphics/SVG/1.1/DTD/svg11.dtd">
<!-- Creator: CorelDRAW -->
<svg xmlns="http://www.w3.org/2000/svg" xml:space="preserve" width="46.2515mm" height="44.9777mm" version="1.1" style="shape-rendering:geometricPrecision; text-rendering:geometricPrecision; image-rendering:optimizeQuality; fill-rule:evenodd; clip-rule:evenodd"
viewBox="0 0 339.04 329.7"
 xmlns:xlink="http://www.w3.org/1999/xlink"
 xmlns:xodm="http://www.corel.com/coreldraw/odm/2003">
 <defs>
  <style type="text/css">
   <![CDATA[
    .fil1 {fill:#408080;fill-rule:nonzero}
    .fil0 {fill:#408080;fill-rule:nonzero;fill-opacity:0.400000}
   ]]>
  </style>
 </defs>
 <g id="Layer_x0020_1">
  <metadata id="CorelCorpID_0Corel-Layer"/>
  <g id="like-1-svgrepo-com.svg">
   <g id="SVGRepo_bgCarrier">
   </g>
   <g id="SVGRepo_tracerCarrier">
   </g>
   <g id="SVGRepo_iconCarrier">
    <path class="fil0" d="M5.85 198.04c6.61,9.5 18.31,14.92 31.71,14.92l69.52 0c4.58,0 8.82,1.86 11.7,5.26 3.05,3.39 4.24,8.14 3.56,13.06l-8.65 55.61c-3.73,16.62 7.29,35.27 23.91,40.86 15.43,5.76 33.57,-2.03 40.86,-13.06l71.55 -106.31 2.03 -3.39 0 -149.89 -2.54 -2.54 -53.75 -41.54c-7.12,-7.12 -23.23,-11.02 -34.59,-11.02l-66.13 0c-22.72,0 -45.61,17.12 -50.7,37.98l-41.71 127c-4.41,12.04 -3.22,23.74 3.22,33.06z"/>
    <path class="fil1" d="M284.61 259.93l17.46 0c26.28,0 36.96,-10.17 36.96,-35.27l0 -170.57c0,-25.09 -10.68,-35.27 -36.96,-35.27l-17.46 0c-26.28,0 -36.96,10.17 -36.96,35.27l0 170.57c0,25.09 10.68,35.27 36.96,35.27z"/>
   </g>
  </g>
 </g>
</svg>
