<?xml version="1.0" encoding="UTF-8"?>
<!DOCTYPE svg PUBLIC "-//W3C//DTD SVG 1.1//EN" "http://www.w3.org/Graphics/SVG/1.1/DTD/svg11.dtd">
<!-- Creator: CorelDRAW -->
<svg xmlns="http://www.w3.org/2000/svg" xml:space="preserve" width="46.2515mm" height="44.9777mm" version="1.1" style="shape-rendering:geometricPrecision; text-rendering:geometricPrecision; image-rendering:optimizeQuality; fill-rule:evenodd; clip-rule:evenodd"
viewBox="0 0 404.01 392.88"
 xmlns:xlink="http://www.w3.org/1999/xlink"
 xmlns:xodm="http://www.corel.com/coreldraw/odm/2003">
 <defs>
  <style type="text/css">
   <![CDATA[
    .fil1 {fill:#408080;fill-rule:nonzero}
    .fil0 {fill:#009846;fill-rule:nonzero;fill-opacity:0.400000}
   ]]>
  </style>
 </defs>
 <g id="Layer_x0020_1">
  <metadata id="CorelCorpID_0Corel-Layer"/>
  <g id="like-1-svgrepo-com.svg">
   <g id="SVGRepo_bgCarrier">
   </g>
   <g id="SVGRepo_tracerCarrier">
   </g>
   <g id="SVGRepo_iconCarrier">
    <path class="fil0" d="M397.04 156.89c-7.88,-11.32 -21.82,-17.78 -37.78,-17.78l-82.84 0c-5.46,0 -10.51,-2.22 -13.94,-6.26 -3.64,-4.04 -5.05,-9.7 -4.24,-15.56l10.3 -66.27c4.45,-19.8 -8.69,-42.03 -28.49,-48.69 -18.39,-6.87 -40.01,2.42 -48.69,15.56l-85.26 126.68 -2.42 4.04 0 178.61 3.03 3.03 64.05 49.5c8.49,8.49 27.68,13.13 41.22,13.13l78.8 0c27.08,0 54.35,-20.41 60.41,-45.26l49.7 -151.33c5.25,-14.34 3.84,-28.29 -3.84,-39.4z"/>
    <path class="fil1" d="M64.86 83.14l-20.81 0c-31.32,0 -44.05,12.12 -44.05,42.03l0 203.26c0,29.9 12.73,42.03 44.05,42.03l20.81 0c31.32,0 44.05,-12.12 44.05,-42.03l0 -203.26c0,-29.9 -12.73,-42.03 -44.05,-42.03z"/>
   </g>
  </g>
 </g>
</svg>
