<?xml version="1.0" encoding="UTF-8"?>
<!DOCTYPE svg PUBLIC "-//W3C//DTD SVG 1.1//EN" "http://www.w3.org/Graphics/SVG/1.1/DTD/svg11.dtd">
<!-- Creator: CorelDRAW -->
<svg xmlns="http://www.w3.org/2000/svg" xml:space="preserve" width="46.2515mm" height="44.9777mm" version="1.1" style="shape-rendering:geometricPrecision; text-rendering:geometricPrecision; image-rendering:optimizeQuality; fill-rule:evenodd; clip-rule:evenodd"
viewBox="0 0 336.28 327.02"
 xmlns:xlink="http://www.w3.org/1999/xlink"
 xmlns:xodm="http://www.corel.com/coreldraw/odm/2003">
 <defs>
  <style type="text/css">
   <![CDATA[
    .fil1 {fill:#408080;fill-rule:nonzero}
    .fil0 {fill:#408080;fill-rule:nonzero;fill-opacity:0.400000}
   ]]>
  </style>
 </defs>
 <g id="Layer_x0020_1">
  <metadata id="CorelCorpID_0Corel-Layer"/>
  <g id="like-1-svgrepo-com.svg">
   <g id="SVGRepo_bgCarrier">
   </g>
   <g id="SVGRepo_tracerCarrier">
   </g>
   <g id="SVGRepo_iconCarrier">
    <path class="fil0" d="M330.48 130.59c-6.56,-9.42 -18.16,-14.8 -31.45,-14.8l-68.95 0c-4.54,0 -8.75,-1.85 -11.6,-5.21 -3.03,-3.36 -4.2,-8.07 -3.53,-12.95l8.58 -55.16c3.7,-16.48 -7.23,-34.98 -23.71,-40.53 -15.3,-5.72 -33.3,2.02 -40.53,12.95l-70.97 105.45 -2.02 3.36 0 148.67 2.52 2.52 53.31 41.2c7.06,7.06 23.04,10.93 34.31,10.93l65.59 0c22.54,0 45.24,-16.98 50.28,-37.67l41.37 -125.96c4.37,-11.94 3.2,-23.54 -3.19,-32.79z"/>
    <path class="fil1" d="M53.98 69.2l-17.32 0c-26.07,0 -36.66,10.09 -36.66,34.98l0 169.18c0,24.89 10.59,34.98 36.66,34.98l17.32 0c26.07,0 36.66,-10.09 36.66,-34.98l0 -169.18c0,-24.89 -10.59,-34.98 -36.66,-34.98z"/>
   </g>
  </g>
 </g>
</svg>
