<?xml version="1.0" encoding="UTF-8"?>
<!DOCTYPE svg PUBLIC "-//W3C//DTD SVG 1.1//EN" "http://www.w3.org/Graphics/SVG/1.1/DTD/svg11.dtd">
<!-- Creator: CorelDRAW -->
<svg xmlns="http://www.w3.org/2000/svg" xml:space="preserve" width="375.288mm" height="88.3677mm" version="1.1" style="shape-rendering:geometricPrecision; text-rendering:geometricPrecision; image-rendering:optimizeQuality; fill-rule:evenodd; clip-rule:evenodd"
viewBox="0 0 27845.59 6556.7"
 xmlns:xlink="http://www.w3.org/1999/xlink"
 xmlns:xodm="http://www.corel.com/coreldraw/odm/2003">
 <defs>
  <style type="text/css">
   <![CDATA[
    .str0 {stroke:#2B2A29;stroke-width:52.35;stroke-miterlimit:22.9256}
    .str1 {stroke:#2B2A29;stroke-width:52.35;stroke-miterlimit:22.9256}
    .fil1 {fill:black;fill-rule:nonzero}
    .fil0 {fill:#408080;fill-rule:nonzero}
   ]]>
  </style>
 </defs>
 <g id="Layer_x0020_1">
  <metadata id="CorelCorpID_0Corel-Layer"/>
  <path class="fil0 str0" d="M9478.26 1732.47l-76.79 362.24 428.47 0c72.68,0 123.09,10.55 151.23,31.65 27.55,21.1 41.62,56.85 41.62,107.26 0,50.41 -34.58,105.51 -103.74,166.47 -36.34,31.06 -90.86,46.3 -163.54,46.3l-837.61 0c-93.79,0 -154.74,-10.55 -182.88,-31.65 -27.55,-21.1 -41.62,-56.87 -41.62,-107.27 0,-50.41 33.99,-105.51 101.99,-164.71 37.51,-32.24 103.16,-48.06 196.94,-48.06l56.87 0 291.31 -1375.11 -131.29 0c-93.79,0 -154.75,-11.14 -182.3,-32.82 -27.54,-21.69 -41.61,-57.44 -41.61,-107.85 0,-50.4 34,-105.51 101.99,-165.88 37.51,-32.24 103.16,-48.65 196.95,-48.65l856.36 1.76c220.98,0 389.2,50.41 505.84,151.22 116.65,100.23 174.67,228.6 174.67,384.52 0,117.82 -32.83,233.87 -97.89,348.17 -48.06,85.57 -106.09,156.5 -173.5,211.01 -125.44,99.65 -243.84,169.99 -355.2,210.43 -111.96,40.45 -239.15,60.96 -382.76,60.96l-333.52 0zm74.44 -351.69l325.9 0c112.54,0 223.32,-25.2 332.34,-75.62 81.48,-38.69 143.61,-89.09 186.99,-150.64 42.79,-61.55 64.47,-121.91 64.47,-181.7 0,-69.17 -30.47,-128.96 -90.85,-178.78 -60.37,-49.82 -150.64,-74.44 -271.39,-74.44l-407.38 0 -140.09 661.18zm2796.51 -664.69l-291.89 1378.62 428.47 0c73.27,0 123.09,10.55 151.22,31.65 27.56,21.1 41.62,56.85 41.62,107.26 0,50.41 -34.58,105.51 -103.74,166.47 -36.34,31.06 -90.86,46.3 -163.54,46.3l-1136.54 0c-72.68,0 -123.09,-10.55 -151.22,-31.65 -27.55,-21.1 -41.62,-56.87 -41.62,-107.27 0,-50.41 34,-104.92 101.99,-164.12 37.51,-32.24 92.61,-48.65 165.29,-48.65l355.79 0 291.32 -1375.11 -430.23 0c-72.68,0 -123.09,-11.14 -150.64,-32.82 -27.55,-21.69 -41.62,-57.44 -41.62,-107.85 0,-50.4 34,-105.51 101.99,-165.88 37.51,-32.24 92.61,-48.65 165.29,-48.65l1137.13 0c72.68,0 122.51,10.55 150.64,31.65 27.54,21.1 41.61,56.86 41.61,107.26 0,50.41 -34.58,105.51 -103.74,166.47 -36.34,31.07 -90.86,46.31 -163.54,46.31l-354.04 0zm1427.86 313l-225.67 1065.62 201.05 0c72.68,0 123.09,10.55 151.23,31.65 27.55,21.1 41.62,56.85 41.62,107.26 0,50.41 -34.58,105.51 -103.75,166.47 -36.34,31.06 -90.86,46.3 -163.53,46.3l-552.74 0c-73.27,0 -123.09,-10.55 -151.23,-31.65 -27.55,-21.1 -41.62,-56.87 -41.62,-107.27 0,-50.41 26.38,-98.48 79.13,-144.19 52.75,-45.72 114.88,-68.58 187.57,-68.58l291.32 -1375.11 -130.12 0c-72.68,0 -123.09,-11.14 -150.64,-32.82 -27.55,-21.69 -41.61,-57.44 -41.61,-107.85 0,-50.4 33.99,-105.51 101.99,-165.88 37.51,-32.24 92.61,-48.65 165.3,-48.65l483.57 0 598.45 1412.03 224.5 -1056.83 -206.91 0c-72.68,0 -123.09,-11.14 -150.64,-32.82 -27.55,-21.69 -41.62,-57.44 -41.62,-107.85 0,-50.4 34,-105.51 101.99,-165.88 37.51,-32.24 92.61,-48.65 165.29,-48.65l559.77 0c72.68,0 123.09,10.55 151.23,31.65 27.54,21.1 41.62,56.86 41.62,107.26 0,50.41 -26.38,98.48 -79.13,144.2 -52.75,45.72 -115.47,68.58 -188.74,68.58l-366.93 1730.3 -349.93 0 -600.8 -1417.31zm2242.6 1470.06c-220.98,0 -406.79,-77.37 -557.43,-232.7 -150.64,-155.33 -225.67,-354.04 -225.67,-595.53 0,-224.49 59.2,-444.88 177.02,-661.76 117.81,-216.29 287.21,-391.55 508.19,-525.77 188.74,-114.3 375.72,-171.75 560.94,-171.75 218.64,0 403.86,77.37 555.67,232.7 151.82,155.33 227.43,351.1 227.43,586.74 0,184.63 -38.69,365.17 -116.65,542.19 -77.96,177.02 -177.01,324.14 -297.18,441.96 -120.16,117.23 -253.22,210.43 -399.17,280.18 -145.95,69.16 -290.14,103.74 -433.16,103.74zm74.44 -351.68c120.16,0 246.77,-42.79 379.24,-128.37 132.47,-84.99 237.39,-202.81 314.76,-352.28 76.79,-149.46 115.47,-299.52 115.47,-449.57 0,-164.13 -48.07,-297.18 -144.19,-399.76 -96.13,-102.58 -212.78,-154.15 -351.1,-154.15 -116.65,0 -240.91,41.62 -372.21,124.85 -131.29,83.24 -237.39,199.3 -317.11,348.17 -80.3,148.88 -120.16,299.52 -120.16,451.92 0,167.64 48.07,302.45 144.19,405.02 96.13,102.58 212.77,154.16 351.1,154.16zm1455.99 -52.75l291.31 -1375.11c-145.36,0 -231.52,-11.14 -259.07,-32.82 -27.56,-21.69 -41.62,-57.44 -41.62,-107.85 0,-50.4 33.99,-105.51 101.99,-165.88 37.51,-32.24 103.16,-48.65 196.94,-48.65l785.44 1.76c274.32,0 485.92,94.95 634.8,284.87 99.06,126.02 148.3,289.56 148.3,490.6 0,66.82 -8.79,139.5 -25.79,218.05l-36.34 168.22c-32.83,148.88 -86.17,281.35 -161.2,396.82 -75.02,115.47 -162.95,209.85 -264.35,283.11 -100.81,73.27 -191.67,127.2 -272.55,161.2 -122.51,51.57 -274.32,77.37 -456.03,77.37l-715.1 0c-93.79,0 -154.75,-10.55 -182.88,-31.65 -27.56,-21.1 -41.62,-56.87 -41.62,-107.27 0,-50.41 26.38,-98.48 79.12,-144.19 52.75,-45.72 125.44,-68.58 218.64,-68.58zm352.27 0l374.55 0c145.95,0 264.94,-24.62 358.14,-74.44 92.61,-49.82 169.98,-115.47 230.94,-196.36 61.55,-81.47 105.5,-182.88 131.88,-305.38l34.58 -166.47c11.14,-53.34 17,-101.99 17,-145.36 0,-152.4 -41.62,-271.39 -125.43,-357.55 -83.82,-86.16 -202.81,-129.54 -356.97,-129.54l-373.38 0 -291.32 1375.11zm2154.09 -443.13l-93.78 443.13 202.81 0c73.27,0 123.09,10.55 151.23,31.65 27.55,21.1 41.61,56.85 41.61,107.26 0,50.41 -34.58,105.51 -104.33,166.47 -35.76,31.06 -90.27,46.3 -162.95,46.3l-612.52 0c-94.37,0 -154.75,-10.55 -182.88,-31.65 -27.56,-21.1 -41.63,-56.87 -41.63,-107.27 0,-50.41 34,-105.51 101.99,-164.71 37.51,-32.24 103.16,-48.06 196.94,-48.06l57.44 0 291.32 -1375.11 -131.88 0c-93.79,0 -154.75,-11.14 -182.3,-32.82 -27.55,-21.69 -41.62,-57.44 -41.62,-107.85 0,-50.4 34,-105.51 101.99,-165.88 37.51,-32.24 103.16,-48.65 196.94,-48.65l839.95 0c230.94,0 404.45,48.65 519.91,145.36 115.47,96.72 173.5,220.39 173.5,370.45 0,135.98 -44.55,259.08 -134.23,368.68 -89.1,109.03 -223.91,205.74 -403.85,289.56 63.89,62.72 129.53,144.78 195.77,245.6 42.2,63.88 96.13,167.64 162.95,310.66 91.43,0 151.22,11.72 179.36,34.58 28.14,22.87 42.2,57.45 42.2,104.34 0,70.93 -33.41,129.54 -100.23,176.44 -34.58,24.03 -92.61,36.33 -172.32,36.33l-198.71 0c-104.92,-225.67 -205.74,-403.85 -302.45,-534.57 -96.72,-130.71 -185.81,-217.46 -267.28,-260.25l-322.97 0zm73.27 -351.68l273.73 0c89.1,0 167.64,-10.55 236.22,-31.07 92.61,-28.14 168.81,-60.96 229.18,-97.3 44.55,-27.55 80.89,-60.96 108.44,-100.23 28.14,-39.27 42.2,-79.72 42.2,-120.75 0,-60.37 -29.89,-113.72 -89.1,-160.61 -59.2,-46.89 -150.64,-70.34 -273.72,-70.34l-402.69 0 -124.27 580.29zm2222.09 1199.25c-220.98,0 -406.79,-77.37 -557.43,-232.7 -150.64,-155.33 -225.67,-354.04 -225.67,-595.53 0,-224.49 59.2,-444.88 177.02,-661.76 117.81,-216.29 287.21,-391.55 508.19,-525.77 188.74,-114.3 375.72,-171.75 560.94,-171.75 218.64,0 403.86,77.37 555.67,232.7 151.82,155.33 227.43,351.1 227.43,586.74 0,184.63 -38.69,365.17 -116.65,542.19 -77.96,177.02 -177.01,324.14 -297.18,441.96 -120.16,117.23 -253.22,210.43 -399.17,280.18 -145.95,69.16 -290.14,103.74 -433.16,103.74zm74.44 -351.68c120.16,0 246.77,-42.79 379.24,-128.37 132.47,-84.99 237.39,-202.81 314.76,-352.28 76.79,-149.46 115.47,-299.52 115.47,-449.57 0,-164.13 -48.07,-297.18 -144.19,-399.76 -96.13,-102.58 -212.78,-154.15 -351.1,-154.15 -116.65,0 -240.91,41.62 -372.21,124.85 -131.29,83.24 -237.39,199.3 -317.11,348.17 -80.3,148.88 -120.16,299.52 -120.16,451.92 0,167.64 48.07,302.45 144.19,405.02 96.13,102.58 212.77,154.16 351.1,154.16zm1754.34 -935.5l-187.57 882.74 200.46 0c49.24,0 87.92,10.55 116.06,31.65 27.55,21.1 41.62,56.85 41.62,107.26 0,50.41 -34.58,105.51 -103.75,166.47 -36.33,31.06 -79.12,46.3 -128.36,46.3l-552.75 0c-72.68,0 -123.09,-10.55 -151.22,-31.65 -27.55,-21.1 -41.61,-56.87 -41.61,-107.27 0,-50.41 26.37,-98.48 79.12,-144.19 52.75,-45.72 115.47,-68.58 188.16,-68.58l291.31 -1375.11c-122.5,0 -197.53,-11.14 -225.08,-32.82 -27.54,-21.69 -41.62,-57.44 -41.62,-107.85 0,-50.4 34,-105.51 101.99,-165.88 37.51,-32.24 92.61,-48.65 165.29,-48.65l460.13 0 230.35 1059.17 698.1 -1059.17 507.61 0c73.26,0 123.09,10.55 151.22,31.65 27.55,21.1 41.62,56.86 41.62,107.26 0,50.41 -26.38,98.48 -79.13,144.2 -52.75,45.72 -114.89,68.58 -186.98,68.58l-291.9 1378.62c121.91,0 196.36,10.55 224.49,31.65 27.55,21.1 41.62,56.85 41.62,107.26 0,50.41 -34.58,105.51 -103.75,166.47 -36.34,31.06 -90.85,46.3 -163.53,46.3l-552.74 0c-49.24,0 -87.92,-10.55 -116.06,-31.65 -27.55,-21.1 -41.61,-56.87 -41.61,-107.27 0,-50.41 34.58,-105.51 103.16,-164.71 36.34,-32.24 79.72,-48.06 128.96,-48.06l127.19 0 257.9 -1218.02 -708.06 1073.82 -320.04 0 -160.61 -738.54zm2392.66 1287.18c-220.98,0 -406.79,-77.37 -557.43,-232.7 -150.64,-155.33 -225.67,-354.04 -225.67,-595.53 0,-224.49 59.2,-444.88 177.01,-661.76 117.82,-216.29 287.21,-391.55 508.19,-525.77 188.74,-114.3 375.72,-171.75 560.94,-171.75 218.63,0 403.85,77.37 555.67,232.7 151.81,155.33 227.42,351.1 227.42,586.74 0,184.63 -38.69,365.17 -116.65,542.19 -77.95,177.02 -177.01,324.14 -297.18,441.96 -120.16,117.23 -253.21,210.43 -399.16,280.18 -145.95,69.16 -290.14,103.74 -433.16,103.74zm74.44 -351.68c120.16,0 246.77,-42.79 379.24,-128.37 132.47,-84.99 237.4,-202.81 314.76,-352.28 76.78,-149.46 115.47,-299.52 115.47,-449.57 0,-164.13 -48.06,-297.18 -144.19,-399.76 -96.12,-102.58 -212.77,-154.15 -351.1,-154.15 -116.64,0 -240.91,41.62 -372.21,124.85 -131.29,83.24 -237.39,199.3 -317.1,348.17 -80.3,148.88 -120.16,299.52 -120.16,451.92 0,167.64 48.07,302.45 144.2,405.02 96.13,102.58 212.77,154.16 351.1,154.16z"/>
  <g id="SVGRepo_iconCarrier">
   <g>
    <g>
     <path class="fil0 str1" d="M150.66 6484.83l1364 0c187.59,17.53 503.18,42.07 818.75,35.06 198.12,15.78 410.26,17.53 578.57,-19.28 569.8,-120.97 427.79,-518.96 427.79,-518.96 308.57,-231.42 133.24,-520.71 133.24,-520.71 273.5,-285.77 5.26,-524.21 5.26,-524.21 0,0 147.27,-229.68 -42.08,-404.99 -161.3,-147.27 -506.68,-127.98 -715.32,-101.69l-149.02 -589.08 404.99 0 0 -163.05c476.88,77.14 1265.82,280.52 1816.34,801.22 5.26,96.43 91.17,173.57 192.86,161.3 87.66,-10.52 152.53,-91.17 152.53,-180.58l0 -1009.86c220.9,-82.4 378.69,-294.54 378.69,-545.25 0,-250.71 -157.79,-462.85 -378.69,-545.25l0 -1001.09c0,-89.42 -63.12,-170.07 -152.53,-180.58 -101.69,-12.27 -187.59,63.11 -192.86,161.29 -550.51,522.46 -1337.71,724.08 -1816.34,801.23l0 -163.05 -1090.5 0c-217.4,0 -392.72,175.32 -392.72,392.72l0 175.32 -119.22 0c-71.88,0 -131.49,59.61 -131.49,131.49l0 492.66c0,71.88 59.61,131.49 131.49,131.49l119.22 -0.01 0 150.78c0,217.4 175.32,392.72 392.72,392.72l99.93 0 115.71 478.63c-368.18,-50.84 -762.65,317.34 -762.65,317.34 -68.37,71.88 -112.2,152.53 -138.5,217.39l0 0c-7.01,15.78 -12.27,31.56 -17.53,45.59 -8.77,19.28 -31.56,47.34 -61.36,77.14 -70.13,71.88 -168.31,112.2 -268.24,112.2l-703.05 0.01c-68.38,0 -124.48,56.1 -124.48,124.47l0 1144.85c0,66.62 56.11,122.73 124.48,122.73zm1758.48 -3057.62l0 -1036.16 652.2 0.01 0 1036.15 -652.2 0z"/>
     <path class="fil1 str1" d="M6122.13 453.74c-548.76,548.76 -568.04,1423.61 -61.36,1995.17l14.02 12.27c-54.35,119.21 -149.03,264.74 -299.8,340.12 -49.09,24.55 -38.58,98.18 15.78,106.95 164.8,26.3 399.73,-3.51 618.89,-170.06l3.51 1.75c559.27,327.85 1288.62,252.47 1769,-226.17 569.8,-569.8 569.8,-1491.99 0,-2061.78 -568.04,-568.04 -1490.24,-568.04 -2060.04,1.76zm532.98 1179.92c-82.4,0 -150.78,-66.62 -150.78,-150.78 0,-82.4 66.62,-150.78 150.78,-150.78 82.4,0 150.78,66.62 150.78,150.78 -1.76,84.15 -68.37,150.78 -150.78,150.78zm497.91 0c-82.4,0 -150.78,-66.62 -150.78,-150.78 0,-82.4 66.62,-150.78 150.78,-150.78 82.4,0 150.78,66.62 150.78,150.78 0,84.15 -68.37,150.78 -150.78,150.78zm497.91 0c-82.4,0 -150.78,-66.62 -150.78,-150.78 0,-82.4 66.62,-150.78 150.78,-150.78 84.16,0 150.78,66.62 150.78,150.78 0,84.16 -68.37,150.78 -150.78,150.78z"/>
    </g>
   </g>
  </g>
 </g>
</svg>
