<?xml version="1.0" encoding="UTF-8"?>
<!DOCTYPE svg PUBLIC "-//W3C//DTD SVG 1.1//EN" "http://www.w3.org/Graphics/SVG/1.1/DTD/svg11.dtd">
<!-- Creator: CorelDRAW -->
<svg xmlns="http://www.w3.org/2000/svg" xml:space="preserve" width="46.2515mm" height="44.9777mm" version="1.1" style="shape-rendering:geometricPrecision; text-rendering:geometricPrecision; image-rendering:optimizeQuality; fill-rule:evenodd; clip-rule:evenodd"
viewBox="0 0 409.83 398.54"
 xmlns:xlink="http://www.w3.org/1999/xlink"
 xmlns:xodm="http://www.corel.com/coreldraw/odm/2003">
 <defs>
  <style type="text/css">
   <![CDATA[
    .fil1 {fill:#408080;fill-rule:nonzero}
    .fil0 {fill:#E53524;fill-rule:nonzero;fill-opacity:0.400000}
   ]]>
  </style>
 </defs>
 <g id="Layer_x0020_1">
  <metadata id="CorelCorpID_0Corel-Layer"/>
  <g id="like-1-svgrepo-com.svg">
   <g id="SVGRepo_bgCarrier">
   </g>
   <g id="SVGRepo_tracerCarrier">
   </g>
   <g id="SVGRepo_iconCarrier">
    <path class="fil0" d="M7.07 239.39c7.99,11.48 22.14,18.04 38.33,18.04l84.03 0c5.53,0 10.66,2.25 14.14,6.35 3.69,4.1 5.12,9.84 4.3,15.78l-10.45 67.23c-4.51,20.08 8.81,42.63 28.9,49.39 18.65,6.97 40.58,-2.46 49.39,-15.78l86.49 -128.51 2.46 -4.1 0 -181.18 -3.07 -3.07 -64.97 -50.22c-8.61,-8.61 -28.08,-13.32 -41.81,-13.32l-79.93 0c-27.47,0 -55.13,20.7 -61.28,45.91l-50.42 153.51c-5.33,14.55 -3.89,28.69 3.89,39.97z"/>
    <path class="fil1" d="M344.04 314.2l21.11 0c31.77,0 44.68,-12.3 44.68,-42.63l0 -206.19c0,-30.33 -12.91,-42.63 -44.68,-42.63l-21.11 0c-31.77,0 -44.68,12.3 -44.68,42.63l0 206.19c0,30.33 12.91,42.63 44.68,42.63z"/>
   </g>
  </g>
 </g>
</svg>
